<?xml version="1.0" encoding="UTF-8"?>
<svg id="Warstwa_1" data-name="Warstwa 1" xmlns="http://www.w3.org/2000/svg" version="1.1" viewBox="0 0 20 20">
  <defs>
    <style>
      .cls-1 {
        fill: #fff;
        stroke-width: 0px;
      }
    </style>
  </defs>
  <path class="cls-1" d="M19.6,18h-.5V5.7c0-.2-.2-.4-.4-.4h-3.2V1.9c0-.2-.2-.4-.4-.4H4.9c-.2,0-.4.2-.4.4v3.5H1.3c-.2,0-.4,0-.4.3v12.3h-.5c-.2,0-.4.2-.4.4s.2.4.4.4h19.2c.2,0,.4-.2.4-.4s-.2-.4-.4-.4ZM18.3,6.1v11.9h-2.9V6.1h2.9ZM10.9,14.5v3.5h-1.9v-3.5h1.9ZM11.3,13.7h0c.1-.1.2-.2.2-.3v-1.1c0-.2-.2-.4-.4-.4s-.4.2-.4.4v1.1c0,.1.1.3.2.3h-1.8c.1-.1.2-.2.2-.3v-1.1c0-.2-.2-.4-.4-.4s-.4.2-.4.4v1.1c0,.1.1.3.2.3h0c-.2,0-.4.2-.4.4v3.9h-3.1V2.3h9.5v15.7h-3.1v-3.9c0-.2-.1-.4-.3-.4ZM4.5,6.1v11.9H1.7V6.1h2.8Z"/>
  <path class="cls-1" d="M3.1,8.1c.2,0,.4-.2.4-.4v-.9c0-.2,0-.4-.4-.4s-.3.2-.3.4v.9c0,.3.1.4.3.4Z"/>
  <path class="cls-1" d="M3.1,10.2c.2,0,.4-.2.4-.4v-.9c0-.3,0-.4-.4-.4s-.3.1-.3.4v.9c0,.2.1.4.3.4Z"/>
  <path class="cls-1" d="M3.1,12.2c.2,0,.4-.2.4-.4v-.9c0-.2-.2-.4-.4-.4s-.4.2-.4.4v.9c.1.2.2.4.4.4Z"/>
  <path class="cls-1" d="M3.1,14.2c.2,0,.4-.2.4-.4v-.9c0-.2-.2-.4-.4-.4s-.4.2-.4.4v.9c.1.3.2.4.4.4Z"/>
  <path class="cls-1" d="M3.1,16.2c.2,0,.4-.2.4-.4v-.9c0-.2,0-.3-.4-.3s-.4.2-.4.4v.9c0,.2.2.3.4.3Z"/>
  <path class="cls-1" d="M16.9,8.1c.2,0,.4-.2.4-.4v-.9c0-.2-.2-.4-.4-.4s-.4.2-.4.4v.9c0,.3.1.4.4.4Z"/>
  <path class="cls-1" d="M16.9,10.2c.2,0,.4-.2.4-.4v-.9c0-.2-.2-.4-.4-.4s-.4.1-.4.4v.9c0,.2.1.4.4.4Z"/>
  <path class="cls-1" d="M16.9,12.2c.2,0,.4-.2.4-.4v-.9c0-.2-.2-.4-.4-.4s-.4.2-.4.4v.9c0,.2.1.4.4.4Z"/>
  <path class="cls-1" d="M16.9,14.2c.2,0,.4-.2.4-.4v-.9c0-.2-.2-.4-.4-.4s-.4.2-.4.4v.9c0,.3.1.4.4.4Z"/>
  <path class="cls-1" d="M16.9,16.2c.2,0,.4-.2.4-.4v-.9c0-.2-.2-.4-.4-.4s-.4.2-.4.4v.9c0,.3.1.4.4.4Z"/>
  <path class="cls-1" d="M6.7,2.9c-.2,0-.4.2-.4.4v1.1c0,.2.2.4.4.4s.4-.2.4-.4v-1.2c0-.2-.2-.3-.4-.3Z"/>
  <path class="cls-1" d="M6.7,5.1c-.2,0-.4.2-.4.4v1.1c0,.2.2.4.4.4s.4-.2.4-.4v-1.1c0-.2-.2-.4-.4-.4Z"/>
  <path class="cls-1" d="M6.7,7.4c-.2,0-.4.2-.4.4v1.1c0,.2.2.4.4.4s.4-.2.4-.4v-1.1c0-.2-.2-.4-.4-.4Z"/>
  <path class="cls-1" d="M6.7,9.7c-.2,0-.4.2-.4.4v1.1c0,.2.2.4.4.4s.4-.2.4-.4v-1.2c0-.2-.2-.3-.4-.3Z"/>
  <path class="cls-1" d="M6.7,11.9c-.2,0-.4.2-.4.4v1.1c0,.2.2.4.4.4s.4-.2.4-.4v-1.1c0-.2-.2-.4-.4-.4Z"/>
  <path class="cls-1" d="M8.9,2.9c-.2,0-.4.2-.4.4v1.1c0,.2.2.4.4.4s.4-.2.4-.4v-1.2c0-.2-.2-.3-.4-.3Z"/>
  <path class="cls-1" d="M8.9,5.1c-.2,0-.4.2-.4.4v1.1c0,.2.2.4.4.4s.4-.2.4-.4v-1.1c0-.2-.2-.4-.4-.4Z"/>
  <path class="cls-1" d="M8.9,7.4c-.2,0-.4.2-.4.4v1.1c0,.2.2.4.4.4s.4-.2.4-.4v-1.1c0-.2-.2-.4-.4-.4Z"/>
  <path class="cls-1" d="M8.9,9.7c-.2,0-.4.2-.4.4v1.1c0,.2.2.4.4.4s.4-.2.4-.4v-1.2c0-.2-.2-.3-.4-.3Z"/>
  <path class="cls-1" d="M11.1,2.9c-.2,0-.4.2-.4.4v1.1c0,.2.2.4.4.4s.4-.2.4-.4v-1.2c0-.2-.2-.3-.4-.3Z"/>
  <path class="cls-1" d="M11.1,5.1c-.2,0-.4.2-.4.4v1.1c0,.2.2.4.4.4s.4-.2.4-.4v-1.1c0-.2-.2-.4-.4-.4Z"/>
  <path class="cls-1" d="M11.1,7.4c-.2,0-.4.2-.4.4v1.1c0,.2.2.4.4.4s.4-.2.4-.4v-1.1c0-.2-.2-.4-.4-.4Z"/>
  <path class="cls-1" d="M11.1,9.7c-.2,0-.4.2-.4.4v1.1c0,.2.2.4.4.4s.4-.2.4-.4v-1.2c0-.2-.2-.3-.4-.3Z"/>
  <path class="cls-1" d="M13.3,4.7c.2,0,.4-.2.4-.4v-1.1c0-.2-.2-.4-.4-.4s-.4.2-.4.4v1.1c0,.2.2.4.4.4Z"/>
  <path class="cls-1" d="M13.3,6.9c.2,0,.4-.2.4-.4v-1c0-.2-.2-.4-.4-.4s-.4.2-.4.4v1.1c0,.2.2.3.4.3Z"/>
  <path class="cls-1" d="M13.3,9.2c.2,0,.4-.2.4-.4v-1c0-.2-.2-.4-.4-.4s-.4.2-.4.4v1.1c0,0,.2.3.4.3Z"/>
  <path class="cls-1" d="M13.3,11.5c.2,0,.4-.2.4-.4v-1.1c0-.2-.2-.4-.4-.4s-.4.2-.4.4v1.1c0,.2.2.4.4.4Z"/>
  <path class="cls-1" d="M13.3,13.8c.2,0,.4-.2.4-.4v-1.1c0-.2-.2-.4-.4-.4s-.4.2-.4.4v1.1c0,.2.2.4.4.4Z"/>
</svg>