<?xml version="1.0" encoding="utf-8"?>
<!-- Generator: Adobe Illustrator 28.5.0, SVG Export Plug-In . SVG Version: 9.03 Build 54727)  -->
<!DOCTYPE svg PUBLIC "-//W3C//DTD SVG 1.1//EN" "http://www.w3.org/Graphics/SVG/1.1/DTD/svg11.dtd" [
	<!ENTITY st0 "fill:#1E8550;">
]>
<svg version="1.1" id="Warstwa_1" xmlns="http://www.w3.org/2000/svg" xmlns:xlink="http://www.w3.org/1999/xlink" x="0px" y="0px"
	 viewBox="0 0 20 20" style="enable-background:new 0 0 20 20;" xml:space="preserve">
<g>
	<path style="&st0;" d="M19.6,18h-0.5V5.7c0-0.2-0.2-0.4-0.4-0.4h-3.2V1.9c0-0.2-0.2-0.4-0.4-0.4H4.9c-0.2,0-0.4,0.2-0.4,0.4v3.5
		H1.3C1.1,5.3,0.9,5.5,0.9,5.7V18H0.4C0.2,18,0,18.2,0,18.4s0.2,0.4,0.4,0.4h18.3h0.9c0.2,0,0.4-0.2,0.4-0.4S19.8,18,19.6,18z
		 M18.3,6.1V18h-2.9V6.1H18.3z M10.9,14.5V18H9v-3.5H10.9z M11.3,13.7L11.3,13.7c0.1-0.1,0.2-0.2,0.2-0.3v-1.1
		c0-0.2-0.2-0.4-0.4-0.4s-0.4,0.2-0.4,0.4v1.1c0,0.1,0.1,0.3,0.2,0.3H9.1c0.1-0.1,0.2-0.2,0.2-0.3v-1.1c0-0.2-0.2-0.4-0.4-0.4
		s-0.4,0.2-0.4,0.4v1.1c0,0.1,0.1,0.3,0.2,0.3l0,0c-0.2,0-0.4,0.2-0.4,0.4V18H5.2V2.3h9.5V18h-3.1v-3.9
		C11.7,13.9,11.5,13.7,11.3,13.7z M4.5,6.1V18H1.7V6.1H4.5z"/>
	<path style="&st0;" d="M3.1,8.1c0.2,0,0.4-0.2,0.4-0.4V6.8c0-0.2-0.1-0.4-0.4-0.4S2.8,6.6,2.8,6.8v0.9C2.8,8,2.9,8.1,3.1,8.1z"/>
	<path style="&st0;" d="M3.1,10.2c0.2,0,0.4-0.2,0.4-0.4V8.9c0-0.3-0.1-0.4-0.4-0.4S2.8,8.6,2.8,8.9v0.9C2.8,10,2.9,10.2,3.1,10.2z"
		/>
	<path style="&st0;" d="M3.1,12.2c0.2,0,0.4-0.2,0.4-0.4v-0.9c0-0.2-0.2-0.4-0.4-0.4s-0.4,0.2-0.4,0.4v0.9C2.8,12,2.9,12.2,3.1,12.2
		z"/>
	<path style="&st0;" d="M3.1,14.2c0.2,0,0.4-0.2,0.4-0.4v-0.9c0-0.2-0.2-0.4-0.4-0.4s-0.4,0.2-0.4,0.4v0.9
		C2.8,14.1,2.9,14.2,3.1,14.2z"/>
	<path style="&st0;" d="M3.1,16.2c0.2,0,0.4-0.2,0.4-0.4v-0.9c0-0.2-0.1-0.3-0.4-0.3S2.7,14.8,2.7,15v0.9
		C2.8,16.1,2.9,16.2,3.1,16.2z"/>
	<path style="&st0;" d="M16.9,8.1c0.2,0,0.4-0.2,0.4-0.4V6.8c0-0.2-0.2-0.4-0.4-0.4c-0.2,0-0.4,0.2-0.4,0.4v0.9
		C16.5,8,16.6,8.1,16.9,8.1z"/>
	<path style="&st0;" d="M16.9,10.2c0.2,0,0.4-0.2,0.4-0.4V8.9c0-0.2-0.2-0.4-0.4-0.4c-0.2,0-0.4,0.1-0.4,0.4v0.9
		C16.5,10,16.6,10.2,16.9,10.2z"/>
	<path style="&st0;" d="M16.9,12.2c0.2,0,0.4-0.2,0.4-0.4v-0.9c0-0.2-0.2-0.4-0.4-0.4c-0.2,0-0.4,0.2-0.4,0.4v0.9
		C16.5,12,16.6,12.2,16.9,12.2z"/>
	<path style="&st0;" d="M16.9,14.2c0.2,0,0.4-0.2,0.4-0.4v-0.9c0-0.2-0.2-0.4-0.4-0.4c-0.2,0-0.4,0.2-0.4,0.4v0.9
		C16.5,14.1,16.6,14.2,16.9,14.2z"/>
	<path style="&st0;" d="M16.9,16.2c0.2,0,0.4-0.2,0.4-0.4v-0.9c0-0.2-0.2-0.4-0.4-0.4c-0.2,0-0.4,0.2-0.4,0.4v0.9
		C16.5,16.1,16.6,16.2,16.9,16.2z"/>
	<path style="&st0;" d="M6.7,2.9c-0.2,0-0.4,0.2-0.4,0.4v1.1c0,0.2,0.2,0.4,0.4,0.4s0.4-0.2,0.4-0.4V3.2C7.1,3,6.9,2.9,6.7,2.9z"/>
	<path style="&st0;" d="M6.7,5.1c-0.2,0-0.4,0.2-0.4,0.4v1.1C6.3,6.8,6.5,7,6.7,7s0.4-0.2,0.4-0.4V5.5C7.1,5.3,6.9,5.1,6.7,5.1z"/>
	<path style="&st0;" d="M6.7,7.4c-0.2,0-0.4,0.2-0.4,0.4v1.1c0,0.2,0.2,0.4,0.4,0.4s0.4-0.2,0.4-0.4V7.8C7.1,7.6,6.9,7.4,6.7,7.4z"
		/>
	<path style="&st0;" d="M6.7,9.7c-0.2,0-0.4,0.2-0.4,0.4v1.1c0,0.2,0.2,0.4,0.4,0.4s0.4-0.2,0.4-0.4V10C7.1,9.8,6.9,9.7,6.7,9.7z"/>
	<path style="&st0;" d="M6.7,11.9c-0.2,0-0.4,0.2-0.4,0.4v1.1c0,0.2,0.2,0.4,0.4,0.4s0.4-0.2,0.4-0.4v-1.1
		C7.1,12.1,6.9,11.9,6.7,11.9z"/>
	<path style="&st0;" d="M8.9,2.9c-0.2,0-0.4,0.2-0.4,0.4v1.1c0,0.2,0.2,0.4,0.4,0.4s0.4-0.2,0.4-0.4V3.2C9.3,3,9.1,2.9,8.9,2.9z"/>
	<path style="&st0;" d="M8.9,5.1c-0.2,0-0.4,0.2-0.4,0.4v1.1C8.5,6.8,8.7,7,8.9,7s0.4-0.2,0.4-0.4V5.5C9.3,5.3,9.1,5.1,8.9,5.1z"/>
	<path style="&st0;" d="M8.9,7.4c-0.2,0-0.4,0.2-0.4,0.4v1.1c0,0.2,0.2,0.4,0.4,0.4s0.4-0.2,0.4-0.4V7.8C9.3,7.6,9.1,7.4,8.9,7.4z"
		/>
	<path style="&st0;" d="M8.9,9.7c-0.2,0-0.4,0.2-0.4,0.4v1.1c0,0.2,0.2,0.4,0.4,0.4s0.4-0.2,0.4-0.4V10C9.3,9.8,9.1,9.7,8.9,9.7z"/>
	<path style="&st0;" d="M11.1,2.9c-0.2,0-0.4,0.2-0.4,0.4v1.1c0,0.2,0.2,0.4,0.4,0.4s0.4-0.2,0.4-0.4V3.2C11.5,3,11.3,2.9,11.1,2.9z
		"/>
	<path style="&st0;" d="M11.1,5.1c-0.2,0-0.4,0.2-0.4,0.4v1.1c0,0.2,0.2,0.4,0.4,0.4s0.4-0.2,0.4-0.4V5.5
		C11.5,5.3,11.3,5.1,11.1,5.1z"/>
	<path style="&st0;" d="M11.1,7.4c-0.2,0-0.4,0.2-0.4,0.4v1.1c0,0.2,0.2,0.4,0.4,0.4s0.4-0.2,0.4-0.4V7.8
		C11.5,7.6,11.3,7.4,11.1,7.4z"/>
	<path style="&st0;" d="M11.1,9.7c-0.2,0-0.4,0.2-0.4,0.4v1.1c0,0.2,0.2,0.4,0.4,0.4s0.4-0.2,0.4-0.4V10C11.5,9.8,11.3,9.7,11.1,9.7
		z"/>
	<path style="&st0;" d="M13.3,4.7c0.2,0,0.4-0.2,0.4-0.4V3.2c0-0.2-0.2-0.4-0.4-0.4S12.9,3,12.9,3.2v1.1C12.9,4.5,13.1,4.7,13.3,4.7
		z"/>
	<path style="&st0;" d="M13.3,6.9c0.2,0,0.4-0.2,0.4-0.4v-1c0-0.2-0.2-0.4-0.4-0.4s-0.4,0.2-0.4,0.4v1.1C12.9,6.8,13.1,6.9,13.3,6.9
		z"/>
	<path style="&st0;" d="M13.3,9.2c0.2,0,0.4-0.2,0.4-0.4v-1c0-0.2-0.2-0.4-0.4-0.4s-0.4,0.2-0.4,0.4v1.1C12.9,9,13.1,9.2,13.3,9.2z"
		/>
	<path style="&st0;" d="M13.3,11.5c0.2,0,0.4-0.2,0.4-0.4V10c0-0.2-0.2-0.4-0.4-0.4s-0.4,0.2-0.4,0.4v1.1
		C12.9,11.3,13.1,11.5,13.3,11.5z"/>
	<path style="&st0;" d="M13.3,13.8c0.2,0,0.4-0.2,0.4-0.4v-1.1c0-0.2-0.2-0.4-0.4-0.4s-0.4,0.2-0.4,0.4v1.1
		C12.9,13.6,13.1,13.8,13.3,13.8z"/>
</g>
</svg>
