<?xml version="1.0" encoding="utf-8"?>
<!-- Generator: Adobe Illustrator 28.5.0, SVG Export Plug-In . SVG Version: 9.03 Build 54727)  -->
<!DOCTYPE svg PUBLIC "-//W3C//DTD SVG 1.1//EN" "http://www.w3.org/Graphics/SVG/1.1/DTD/svg11.dtd" [
	<!ENTITY st0 "fill:#1E8550;">
]>
<svg version="1.1" id="Warstwa_1" xmlns="http://www.w3.org/2000/svg" xmlns:xlink="http://www.w3.org/1999/xlink" x="0px" y="0px"
	 viewBox="0 0 18 22" style="enable-background:new 0 0 18 22;" xml:space="preserve">
<g>
	<path style="&st0;" d="M9.4,10.3c2.3,0,4.1-1.8,4.1-4.1V5c0-2.3-1.8-4.1-4.1-4.1S5.3,2.7,5.3,5v1.1C5.3,8.4,7.1,10.3,9.4,10.3z
		 M9.4,1.7c1.8,0,3.3,1.5,3.3,3.3v1.1c0,1.8-1.5,3.3-3.3,3.3C7.6,9.5,6.1,8,6.1,6.1V5C6.1,3.2,7.6,1.7,9.4,1.7z"/>
	<path style="&st0;" d="M16.8,12.8c-0.9-1-2.3-1.6-3.7-1.6h-1.7c0,0,0,0-0.1,0v0.1v-0.1l0,0c-0.1,0-0.1,0.1-0.2,0.1l0,0l0,0l0,0
		c0,0,0,0,0,0.1l0,0l-0.7,3.9l-0.2-2l0.6-1.3c0.1-0.1,0-0.3,0-0.4c-0.1-0.1-0.2-0.2-0.3-0.2h-2c-0.1,0-0.2,0.1-0.3,0.2
		c-0.1,0.1-0.1,0.2,0,0.4l0.6,1.3l-0.2,2l-0.7-3.8l0,0c0,0,0,0,0-0.1l0,0l0,0l-0.1-0.1l0,0H7.7l0,0h-2c-1.4,0-2.7,0.6-3.7,1.6
		c-0.8,0.9-1.2,2-1.1,3.2c0.1,1.4,0.6,3.3,1,4.9c0,0,0,0,0,0.1l0,0l0,0c0,0,0,0,0,0.1l0,0H2l0,0l0,0c0,0,0,0,0.1,0h14.3
		c0,0,0,0,0.1,0l0,0h0.1c0,0,0,0,0.1,0l0,0l0,0c0,0,0,0,0-0.1c0,0,0,0,0-0.1c0.4-1.6,0.8-3.6,1-4.9C18,14.8,17.6,13.7,16.8,12.8z
		 M13.7,16.3c-0.2,0-0.4,0.2-0.4,0.4v3.7H5.5v-3.7c0-0.2-0.2-0.4-0.4-0.4s-0.4,0.2-0.4,0.4v3.7H2.5c-0.3-1.3-0.7-3.2-0.9-4.5
		c-0.1-0.9,0.2-1.8,0.9-2.6c0.8-0.9,1.9-1.4,3.1-1.4H7l1.1,5.9c0,0.2,0.2,0.3,0.4,0.3s0.3-0.2,0.4-0.3L9.4,14l0.4,3.8
		c0,0.2,0.2,0.3,0.4,0.3s0.3-0.1,0.4-0.3l1.1-5.9h1.4c1.2,0,2.3,0.5,3.1,1.4c0.7,0.7,1,1.7,0.9,2.6c-0.1,1.2-0.6,3.1-0.9,4.5H14
		v-3.7C14.1,16.4,13.9,16.3,13.7,16.3z M9.4,12.9l-0.3-0.7h0.6L9.4,12.9z M11.2,11.4L11.2,11.4L11.2,11.4L11.2,11.4L11.2,11.4z
		 M2.1,20.9L2.1,20.9L2.1,20.9L2.1,20.9z M16.6,21L16.6,21L16.6,21L16.6,21z M16.8,20.8L16.8,20.8L16.8,20.8L16.8,20.8z"/>
</g>
</svg>
